<svg xmlns="http://www.w3.org/2000/svg" xmlns:xlink="http://www.w3.org/1999/xlink" width="337" zoomAndPan="magnify" viewBox="0 0 252.75 171.000002" height="228" preserveAspectRatio="xMidYMid meet" version="1.0"><defs><g/><clipPath id="16a9dd621a"><path d="M 0.609375 0 L 172 0 L 172 107 L 0.609375 107 Z M 0.609375 0 " clip-rule="nonzero"/></clipPath><clipPath id="3b48393ac9"><path d="M 23 70 L 181.054688 70 L 181.054688 148.382812 L 23 148.382812 Z M 23 70 " clip-rule="nonzero"/></clipPath></defs><g clip-path="url(#16a9dd621a)"><path fill="#16539b" d="M 87.25 0 L 107.464844 16.144531 L 107.464844 7.449219 L 128.75 7.449219 L 128.75 33.136719 L 171.734375 67.457031 C 167.117188 67.179688 162.457031 67.039062 157.75 67.039062 C 154.867188 67.039062 151.996094 67.09375 149.144531 67.199219 L 87.25 17.515625 L 39.703125 55.480469 L 46.132812 55.480469 L 46.132812 81.191406 C 67.410156 69.414062 109.089844 63.082031 138.082031 67.867188 C 97.484375 71.300781 60.820312 85.238281 32.445312 106.195312 L 32.445312 69.167969 L 0.621094 69.167969 Z M 87.25 0 " fill-opacity="1" fill-rule="evenodd"/></g><g clip-path="url(#3b48393ac9)"><path fill="#8cad2a" d="M 110.003906 82.035156 C 134.542969 73.824219 158.96875 70.300781 181.035156 70.96875 C 167.296875 72.675781 153.082031 75.863281 138.835938 80.632812 C 95.558594 95.117188 62.03125 120.796875 46.203125 148.1875 L 23.007812 140.929688 C 40.4375 116.871094 71.328125 94.980469 110.003906 82.035156 Z M 110.003906 82.035156 " fill-opacity="1" fill-rule="evenodd"/></g><g fill="#16539b" fill-opacity="1"><g transform="translate(105.91765, 122.617978)"><g><path d="M 28.328125 -24.453125 L 23.4375 0 L 17.78125 0 L 19.78125 -9.953125 L 8.703125 -9.953125 L 6.703125 0 L 1.015625 0 L 5.90625 -24.453125 L 11.59375 -24.453125 L 9.671875 -14.84375 L 20.75 -14.84375 L 22.671875 -24.453125 Z M 28.328125 -24.453125 "/></g></g></g><g fill="#16539b" fill-opacity="1"><g transform="translate(133.340355, 122.617978)"><g><path d="M 10.625 -19.921875 L 9.578125 -14.609375 L 20.921875 -14.609375 L 20.046875 -10.203125 L 8.671875 -10.203125 L 7.546875 -4.546875 L 20.890625 -4.546875 L 19.953125 0 L 1.015625 0 L 5.90625 -24.453125 L 24.390625 -24.453125 L 23.4375 -19.921875 Z M 10.625 -19.921875 "/></g></g></g><g fill="#16539b" fill-opacity="1"><g transform="translate(155.977122, 122.617978)"><g><path d="M 5.90625 -24.453125 L 11.59375 -24.453125 L 7.609375 -4.609375 L 19.875 -4.609375 L 18.9375 0 L 1.015625 0 Z M 5.90625 -24.453125 "/></g></g></g><g fill="#16539b" fill-opacity="1"><g transform="translate(176.273325, 122.617978)"><g><path d="M 15.796875 -24.453125 C 18.847656 -24.453125 21.203125 -23.78125 22.859375 -22.4375 C 24.523438 -21.101562 25.359375 -19.238281 25.359375 -16.84375 C 25.359375 -14.789062 24.875 -13 23.90625 -11.46875 C 22.945312 -9.945312 21.578125 -8.78125 19.796875 -7.96875 C 18.015625 -7.15625 15.910156 -6.75 13.484375 -6.75 L 8.03125 -6.75 L 6.703125 0 L 1.015625 0 L 5.90625 -24.453125 Z M 13.734375 -11.359375 C 15.617188 -11.359375 17.070312 -11.785156 18.09375 -12.640625 C 19.125 -13.503906 19.640625 -14.738281 19.640625 -16.34375 C 19.640625 -17.507812 19.25 -18.382812 18.46875 -18.96875 C 17.6875 -19.550781 16.5625 -19.84375 15.09375 -19.84375 L 10.65625 -19.84375 L 8.9375 -11.359375 Z M 13.734375 -11.359375 "/></g></g></g><g fill="#8cad2a" fill-opacity="0.4"><g transform="translate(67.372673, 150.044224)"><g><path d="M 21.5625 -12.609375 C 22.601562 -12.191406 23.410156 -11.566406 23.984375 -10.734375 C 24.554688 -9.910156 24.84375 -8.90625 24.84375 -7.71875 C 24.84375 -5.175781 23.835938 -3.253906 21.828125 -1.953125 C 19.828125 -0.648438 17.160156 0 13.828125 0 L 1.015625 0 L 5.90625 -24.453125 L 17.71875 -24.453125 C 20.34375 -24.453125 22.363281 -23.96875 23.78125 -23 C 25.207031 -22.039062 25.921875 -20.660156 25.921875 -18.859375 C 25.921875 -17.367188 25.53125 -16.09375 24.75 -15.03125 C 23.96875 -13.976562 22.90625 -13.171875 21.5625 -12.609375 Z M 10.65625 -20.1875 L 9.5 -14.421875 L 15.265625 -14.421875 C 16.753906 -14.421875 17.910156 -14.71875 18.734375 -15.3125 C 19.566406 -15.914062 19.984375 -16.773438 19.984375 -17.890625 C 19.984375 -19.421875 18.785156 -20.1875 16.390625 -20.1875 Z M 14.1875 -4.265625 C 15.769531 -4.265625 17.003906 -4.566406 17.890625 -5.171875 C 18.773438 -5.773438 19.21875 -6.648438 19.21875 -7.796875 C 19.21875 -9.472656 17.992188 -10.3125 15.546875 -10.3125 L 8.703125 -10.3125 L 7.515625 -4.265625 Z M 14.1875 -4.265625 "/></g></g></g><g fill="#8cad2a" fill-opacity="0.4"><g transform="translate(93.293223, 150.044224)"><g><path d="M 10.625 -19.921875 L 9.578125 -14.609375 L 20.921875 -14.609375 L 20.046875 -10.203125 L 8.671875 -10.203125 L 7.546875 -4.546875 L 20.890625 -4.546875 L 19.953125 0 L 1.015625 0 L 5.90625 -24.453125 L 24.390625 -24.453125 L 23.4375 -19.921875 Z M 10.625 -19.921875 "/></g></g></g><g fill="#8cad2a" fill-opacity="0.4"><g transform="translate(115.929991, 150.044224)"><g><path d="M 18.40625 -5.234375 L 7.015625 -5.234375 L 3.84375 0 L -2.203125 0 L 13.625 -24.453125 L 19.21875 -24.453125 L 25.21875 0 L 19.5625 0 Z M 17.46875 -9.53125 L 15.40625 -18.96875 L 9.640625 -9.53125 Z M 17.46875 -9.53125 "/></g></g></g><g fill="#8cad2a" fill-opacity="0.4"><g transform="translate(141.885472, 150.044224)"><g><path d="M 13.875 0.421875 C 11.425781 0.421875 9.285156 -0.0195312 7.453125 -0.90625 C 5.628906 -1.789062 4.226562 -3.035156 3.25 -4.640625 C 2.269531 -6.253906 1.78125 -8.109375 1.78125 -10.203125 C 1.78125 -12.972656 2.414062 -15.46875 3.6875 -17.6875 C 4.957031 -19.914062 6.742188 -21.671875 9.046875 -22.953125 C 11.347656 -24.234375 13.992188 -24.875 16.984375 -24.875 C 19.171875 -24.875 21.101562 -24.5 22.78125 -23.75 C 24.457031 -23.007812 25.726562 -21.941406 26.59375 -20.546875 L 22.5 -17.1875 C 21.195312 -19.09375 19.226562 -20.046875 16.59375 -20.046875 C 14.800781 -20.046875 13.21875 -19.625 11.84375 -18.78125 C 10.46875 -17.945312 9.398438 -16.804688 8.640625 -15.359375 C 7.890625 -13.921875 7.515625 -12.316406 7.515625 -10.546875 C 7.515625 -8.660156 8.113281 -7.164062 9.3125 -6.0625 C 10.507812 -4.957031 12.191406 -4.40625 14.359375 -4.40625 C 16.941406 -4.40625 19.109375 -5.347656 20.859375 -7.234375 L 24.21875 -3.8125 C 21.789062 -0.988281 18.34375 0.421875 13.875 0.421875 Z M 13.875 0.421875 "/></g></g></g><g fill="#8cad2a" fill-opacity="0.4"><g transform="translate(166.688142, 150.044224)"><g><path d="M 13.703125 0.421875 C 11.253906 0.421875 9.128906 -0.0195312 7.328125 -0.90625 C 5.535156 -1.789062 4.160156 -3.035156 3.203125 -4.640625 C 2.253906 -6.253906 1.78125 -8.109375 1.78125 -10.203125 C 1.78125 -12.972656 2.414062 -15.46875 3.6875 -17.6875 C 4.957031 -19.914062 6.738281 -21.671875 9.03125 -22.953125 C 11.320312 -24.234375 13.945312 -24.875 16.90625 -24.875 C 19.351562 -24.875 21.472656 -24.429688 23.265625 -23.546875 C 25.054688 -22.660156 26.429688 -21.414062 27.390625 -19.8125 C 28.347656 -18.207031 28.828125 -16.351562 28.828125 -14.25 C 28.828125 -11.476562 28.191406 -8.976562 26.921875 -6.75 C 25.648438 -4.53125 23.863281 -2.78125 21.5625 -1.5 C 19.269531 -0.21875 16.648438 0.421875 13.703125 0.421875 Z M 14.1875 -4.40625 C 15.976562 -4.40625 17.546875 -4.832031 18.890625 -5.6875 C 20.242188 -6.550781 21.28125 -7.703125 22 -9.140625 C 22.726562 -10.585938 23.09375 -12.1875 23.09375 -13.9375 C 23.09375 -15.800781 22.507812 -17.285156 21.34375 -18.390625 C 20.175781 -19.492188 18.535156 -20.046875 16.421875 -20.046875 C 14.628906 -20.046875 13.054688 -19.613281 11.703125 -18.75 C 10.347656 -17.894531 9.3125 -16.742188 8.59375 -15.296875 C 7.875 -13.859375 7.515625 -12.265625 7.515625 -10.515625 C 7.515625 -8.648438 8.09375 -7.164062 9.25 -6.0625 C 10.414062 -4.957031 12.0625 -4.40625 14.1875 -4.40625 Z M 14.1875 -4.40625 "/></g></g></g><g fill="#8cad2a" fill-opacity="0.4"><g transform="translate(195.368455, 150.044224)"><g><path d="M 28.328125 -24.453125 L 23.4375 0 L 18.796875 0 L 9.671875 -15.296875 L 6.609375 0 L 1.015625 0 L 5.90625 -24.453125 L 10.59375 -24.453125 L 19.703125 -9.125 L 22.75 -24.453125 Z M 28.328125 -24.453125 "/></g></g></g><g fill="#8cad2a" fill-opacity="1"><g transform="translate(67.372673, 150.044224)"><g><path d="M 21.5625 -12.609375 C 22.601562 -12.191406 23.410156 -11.566406 23.984375 -10.734375 C 24.554688 -9.910156 24.84375 -8.90625 24.84375 -7.71875 C 24.84375 -5.175781 23.835938 -3.253906 21.828125 -1.953125 C 19.828125 -0.648438 17.160156 0 13.828125 0 L 1.015625 0 L 5.90625 -24.453125 L 17.71875 -24.453125 C 20.34375 -24.453125 22.363281 -23.96875 23.78125 -23 C 25.207031 -22.039062 25.921875 -20.660156 25.921875 -18.859375 C 25.921875 -17.367188 25.53125 -16.09375 24.75 -15.03125 C 23.96875 -13.976562 22.90625 -13.171875 21.5625 -12.609375 Z M 10.65625 -20.1875 L 9.5 -14.421875 L 15.265625 -14.421875 C 16.753906 -14.421875 17.910156 -14.71875 18.734375 -15.3125 C 19.566406 -15.914062 19.984375 -16.773438 19.984375 -17.890625 C 19.984375 -19.421875 18.785156 -20.1875 16.390625 -20.1875 Z M 14.1875 -4.265625 C 15.769531 -4.265625 17.003906 -4.566406 17.890625 -5.171875 C 18.773438 -5.773438 19.21875 -6.648438 19.21875 -7.796875 C 19.21875 -9.472656 17.992188 -10.3125 15.546875 -10.3125 L 8.703125 -10.3125 L 7.515625 -4.265625 Z M 14.1875 -4.265625 "/></g></g></g><g fill="#8cad2a" fill-opacity="1"><g transform="translate(93.293223, 150.044224)"><g><path d="M 10.625 -19.921875 L 9.578125 -14.609375 L 20.921875 -14.609375 L 20.046875 -10.203125 L 8.671875 -10.203125 L 7.546875 -4.546875 L 20.890625 -4.546875 L 19.953125 0 L 1.015625 0 L 5.90625 -24.453125 L 24.390625 -24.453125 L 23.4375 -19.921875 Z M 10.625 -19.921875 "/></g></g></g><g fill="#8cad2a" fill-opacity="1"><g transform="translate(115.929991, 150.044224)"><g><path d="M 18.40625 -5.234375 L 7.015625 -5.234375 L 3.84375 0 L -2.203125 0 L 13.625 -24.453125 L 19.21875 -24.453125 L 25.21875 0 L 19.5625 0 Z M 17.46875 -9.53125 L 15.40625 -18.96875 L 9.640625 -9.53125 Z M 17.46875 -9.53125 "/></g></g></g><g fill="#8cad2a" fill-opacity="1"><g transform="translate(141.885472, 150.044224)"><g><path d="M 13.875 0.421875 C 11.425781 0.421875 9.285156 -0.0195312 7.453125 -0.90625 C 5.628906 -1.789062 4.226562 -3.035156 3.25 -4.640625 C 2.269531 -6.253906 1.78125 -8.109375 1.78125 -10.203125 C 1.78125 -12.972656 2.414062 -15.46875 3.6875 -17.6875 C 4.957031 -19.914062 6.742188 -21.671875 9.046875 -22.953125 C 11.347656 -24.234375 13.992188 -24.875 16.984375 -24.875 C 19.171875 -24.875 21.101562 -24.5 22.78125 -23.75 C 24.457031 -23.007812 25.726562 -21.941406 26.59375 -20.546875 L 22.5 -17.1875 C 21.195312 -19.09375 19.226562 -20.046875 16.59375 -20.046875 C 14.800781 -20.046875 13.21875 -19.625 11.84375 -18.78125 C 10.46875 -17.945312 9.398438 -16.804688 8.640625 -15.359375 C 7.890625 -13.921875 7.515625 -12.316406 7.515625 -10.546875 C 7.515625 -8.660156 8.113281 -7.164062 9.3125 -6.0625 C 10.507812 -4.957031 12.191406 -4.40625 14.359375 -4.40625 C 16.941406 -4.40625 19.109375 -5.347656 20.859375 -7.234375 L 24.21875 -3.8125 C 21.789062 -0.988281 18.34375 0.421875 13.875 0.421875 Z M 13.875 0.421875 "/></g></g></g><g fill="#8cad2a" fill-opacity="1"><g transform="translate(166.688142, 150.044224)"><g><path d="M 13.703125 0.421875 C 11.253906 0.421875 9.128906 -0.0195312 7.328125 -0.90625 C 5.535156 -1.789062 4.160156 -3.035156 3.203125 -4.640625 C 2.253906 -6.253906 1.78125 -8.109375 1.78125 -10.203125 C 1.78125 -12.972656 2.414062 -15.46875 3.6875 -17.6875 C 4.957031 -19.914062 6.738281 -21.671875 9.03125 -22.953125 C 11.320312 -24.234375 13.945312 -24.875 16.90625 -24.875 C 19.351562 -24.875 21.472656 -24.429688 23.265625 -23.546875 C 25.054688 -22.660156 26.429688 -21.414062 27.390625 -19.8125 C 28.347656 -18.207031 28.828125 -16.351562 28.828125 -14.25 C 28.828125 -11.476562 28.191406 -8.976562 26.921875 -6.75 C 25.648438 -4.53125 23.863281 -2.78125 21.5625 -1.5 C 19.269531 -0.21875 16.648438 0.421875 13.703125 0.421875 Z M 14.1875 -4.40625 C 15.976562 -4.40625 17.546875 -4.832031 18.890625 -5.6875 C 20.242188 -6.550781 21.28125 -7.703125 22 -9.140625 C 22.726562 -10.585938 23.09375 -12.1875 23.09375 -13.9375 C 23.09375 -15.800781 22.507812 -17.285156 21.34375 -18.390625 C 20.175781 -19.492188 18.535156 -20.046875 16.421875 -20.046875 C 14.628906 -20.046875 13.054688 -19.613281 11.703125 -18.75 C 10.347656 -17.894531 9.3125 -16.742188 8.59375 -15.296875 C 7.875 -13.859375 7.515625 -12.265625 7.515625 -10.515625 C 7.515625 -8.648438 8.09375 -7.164062 9.25 -6.0625 C 10.414062 -4.957031 12.0625 -4.40625 14.1875 -4.40625 Z M 14.1875 -4.40625 "/></g></g></g><g fill="#8cad2a" fill-opacity="1"><g transform="translate(195.368455, 150.044224)"><g><path d="M 28.328125 -24.453125 L 23.4375 0 L 18.796875 0 L 9.671875 -15.296875 L 6.609375 0 L 1.015625 0 L 5.90625 -24.453125 L 10.59375 -24.453125 L 19.703125 -9.125 L 22.75 -24.453125 Z M 28.328125 -24.453125 "/></g></g></g></svg>